<?xml version="1.0" standalone="no"?><!DOCTYPE svg PUBLIC "-//W3C//DTD SVG 1.1//EN" "http://www.w3.org/Graphics/SVG/1.1/DTD/svg11.dtd"><svg t="1571835968575" class="icon" viewBox="0 0 1024 1024" version="1.1" xmlns="http://www.w3.org/2000/svg" p-id="4249" xmlns:xlink="http://www.w3.org/1999/xlink" width="200" height="200"><defs><style type="text/css"></style></defs><path d="M115.968 927.936A112 112 0 0 1 0 816v-512c0-50.88 33.92-93.792 80.32-107.456A192 192 0 0 1 272 16h480a192 192 0 0 1 191.68 180.544A112.064 112.064 0 0 1 1024 304v512a112 112 0 0 1-115.968 111.936A191.744 191.744 0 0 1 752 1008h-480a191.744 191.744 0 0 1-156.032-80.064z" p-id="4250"></path></svg>